<svg width="60" height="58" viewBox="0 0 60 58" fill="none" xmlns="http://www.w3.org/2000/svg">
<path fill-rule="evenodd" clip-rule="evenodd" d="M58.7259 15.6768L53.4085 23.1118L48.091 15.6768H50.9903C50.7693 10.1525 46.2059 5.7331 40.6284 5.7331C35.922 5.7331 31.9307 8.89168 30.6696 13.1941C29.1355 12.7002 27.5493 12.3882 25.9372 12.2452C26.1192 11.5563 26.3532 10.8674 26.6393 10.2045C27.4063 8.39775 28.4984 6.77296 29.8895 5.38215C31.2806 3.99133 32.9058 2.88648 34.7129 2.13258C36.5851 1.32669 38.5742 0.923744 40.6284 0.923744C42.6826 0.923744 44.6718 1.32669 46.5439 2.11958C48.3511 2.88648 49.9762 3.97834 51.3673 5.36915C52.7584 6.75997 53.8505 8.38475 54.6176 10.1915C55.3587 11.9333 55.7617 13.779 55.8007 15.6768H58.7259Z" fill="white"/>
<path fill-rule="evenodd" clip-rule="evenodd" d="M51.2892 57.0761V53.8786H32.9577C33.0877 53.8136 33.2177 53.7616 33.3477 53.6966C35.3369 52.7477 37.1701 51.5129 38.8082 50.0051C39.0292 49.7971 39.2372 49.6021 39.4322 49.4072C39.6533 49.1862 39.8873 48.9522 40.1083 48.7053C40.3683 48.4193 40.6283 48.1203 40.8624 47.8214H51.2892V44.6238L60 50.85L51.2892 57.0761Z" fill="white"/>
<path fill-rule="evenodd" clip-rule="evenodd" d="M44.5287 33.9784C44.5287 36.747 43.9827 39.4376 42.9166 41.9723C42.0065 44.13 40.7324 46.1057 39.1463 47.8345C38.9382 48.0555 38.7302 48.2765 38.5222 48.4974C38.3272 48.6924 38.1322 48.8744 37.9372 49.0693C36.403 50.4862 34.6869 51.643 32.8147 52.5399C32.5547 52.6699 32.2817 52.7869 32.0087 52.9038C31.9957 52.9038 31.9957 52.9168 31.9827 52.9168C30.4225 53.5797 28.7454 53.9047 27.0422 53.9047H0V47.8605H25.1051C32.6977 47.8605 38.9252 41.7903 39.0292 34.1993C39.0292 34.1343 39.0292 34.0693 39.0292 34.0044C39.0292 25.7115 32.2947 18.9784 24 18.9784C15.7053 18.9524 8.97075 25.6725 8.97075 33.9784H12.455L6.22752 42.6872L0 33.9784H3.48429C3.48429 31.2097 4.03034 28.5191 5.09642 25.9844C6.13651 23.5408 7.60563 21.344 9.49079 19.4593C11.3759 17.5745 13.5731 16.0927 16.0173 15.0659C18.5525 14 21.2438 13.4541 24.013 13.4541C24.572 13.4541 25.1181 13.4801 25.6641 13.5191C27.2763 13.6491 28.8494 13.961 30.3835 14.468C30.9296 14.6499 31.4626 14.8449 31.9957 15.0789C34.4399 16.1187 36.637 17.5875 38.5222 19.4723C40.4074 21.357 41.8895 23.5538 42.9166 25.9974C43.9827 28.5191 44.5287 31.2097 44.5287 33.9784Z" fill="white"/>
</svg>
